<?xml version="1.0" standalone="no"?>
<svg viewBox="0 0 200 200" xmlns="http://www.w3.org/2000/svg">
  <path fill="#FF0066" d="M30.8,-61.5C37.3,-49.5,38.3,-36.1,43.6,-25.6C48.9,-15.1,58.5,-7.6,63.7,3C69,13.7,70,27.3,63.4,35.5C56.8,43.7,42.6,46.5,30.8,52.7C18.9,58.9,9.5,68.6,-0.6,69.5C-10.6,70.5,-21.2,62.8,-29.1,54.3C-37,45.8,-42.2,36.6,-46.9,27.4C-51.6,18.3,-55.7,9.1,-59.1,-1.9C-62.4,-13,-65,-26,-59,-32.9C-53,-39.7,-38.3,-40.4,-27.1,-49.6C-15.8,-58.8,-7.9,-76.6,2.1,-80.2C12.1,-83.9,24.2,-73.4,30.8,-61.5Z" transform="translate(100 100)" />
</svg>
